# xmcd CD database file
#
# Track frame offsets:
#	150
#	14392
#	32925
#
# Disc length: 625 seconds
#
# Revision: 0
# Processed by: cddbd v1.5PL3 Copyright (c) Steve Scherf et al.
# Submitted via: CDex 1.51
#
DISCID=1d026f03
DTITLE=平家みちよ - 卒業 〜TOP OF THE WORLD〜
DYEAR=1998
DGENRE=JPop
TTITLE0=卒業 〜TOP OF THE WORLD〜
TTITLE1=支えてくれなくちゃ
TTITLE2=卒業 〜TOP OF THE WORLD〜 （オリジナル・カラオケ）
EXTD=YEAR: 1998
EXTT0=
EXTT1=
EXTT2=
PLAYORDER=
